<svg xmlns="http://www.w3.org/2000/svg" viewBox="0 0 48 48" width="48" height="48" role="img" aria-label="DTech Leadership">
  <defs><clipPath id="f"><rect width="48" height="48" rx="11"/></clipPath></defs>
  <rect width="48" height="48" rx="11" fill="#1F6BFF"/>
  <g clip-path="url(#f)" stroke="#ffffff" stroke-opacity="0.16" stroke-width="0.9">
    <line x1="8" y1="0" x2="8" y2="48"/><line x1="16" y1="0" x2="16" y2="48"/><line x1="24" y1="0" x2="24" y2="48"/><line x1="32" y1="0" x2="32" y2="48"/><line x1="40" y1="0" x2="40" y2="48"/>
    <line x1="0" y1="8" x2="48" y2="8"/><line x1="0" y1="16" x2="48" y2="16"/><line x1="0" y1="24" x2="48" y2="24"/><line x1="0" y1="32" x2="48" y2="32"/><line x1="0" y1="40" x2="48" y2="40"/>
  </g>
  <path d="M13 33 L24 26 L35 33" fill="none" stroke="#ffffff" stroke-opacity="0.55" stroke-width="3.6" stroke-linecap="round" stroke-linejoin="round"/>
  <path d="M13 27 L24 20 L35 27" fill="none" stroke="#ffffff" stroke-width="3.6" stroke-linecap="round" stroke-linejoin="round"/>
  <path d="M14 21 L24 14.5 L34 21" fill="none" stroke="#0FB9A6" stroke-width="3.6" stroke-linecap="round" stroke-linejoin="round"/>
</svg>
